<svg xmlns="http://www.w3.org/2000/svg" viewBox="0 0 469.336 469.336" xmlns:v="https://vecta.io/nano"><path d="M456.836 76.168l-64-64.054c-16.125-16.14-44.177-16.17-60.365.03L45.763 301.682c-1.27 1.282-2.188 2.857-2.688 4.587L.41 455.73c-1.063 3.722-.02 7.736 2.72 10.478a10.65 10.65 0 0 0 7.542 3.128 10.78 10.78 0 0 0 2.927-.407l149.333-42.703c1.73-.5 3.302-1.418 4.583-2.7l289.323-286.983c8.063-8.07 12.5-18.787 12.5-30.192s-4.437-22.124-12.5-30.193zM285.99 89.737L325.253 129 120.257 333.998l-14.712-29.434a10.67 10.67 0 0 0-9.542-5.896H78.92L285.99 89.737zM26.2 443.137L40.095 394.5l34.742 34.742L26.2 443.137zm123.135-35.177L98.3 422.54l-51.503-51.503L61.377 320h28.03l18.385 36.77a10.67 10.67 0 0 0 4.771 4.771l36.77 18.385v28.032zm21.334-17.543v-17.082a10.67 10.67 0 0 0-5.896-9.542L135.34 349.08l204.996-204.996L379.6 183.35 170.67 390.417zM441.784 121.72l-47.033 46.613-93.747-93.747 46.582-47c8.063-8.063 22.104-8.063 30.167 0l64 64c4.03 4.03 6.25 9.385 6.25 15.083a21.16 21.16 0 0 1-6.219 15.052z"/></svg>
