<svg width="28" height="41" viewBox="0 0 28 41" fill="none" xmlns="http://www.w3.org/2000/svg">
<path d="M14.2166 0.00067315C12.6809 0.00111949 11.2082 0.610452 10.1223 1.69472C9.03641 2.77899 8.42616 4.24946 8.4257 5.78283V8.40956H5.79499C5.03396 8.40893 4.28027 8.55815 3.57704 8.84866C2.87383 9.13917 2.23489 9.56531 1.69677 10.1026C1.15865 10.64 0.731928 11.278 0.44101 11.9801C0.150093 12.6823 0.000693297 13.4349 0.00135863 14.1947V19.9749H8.42434V25.2283H5.79363C4.25748 25.2281 2.78415 25.8372 1.69768 26.9215C0.611196 28.0059 0.000536607 29.4766 0 31.0104V41H5.79635C6.55665 40.9997 7.30942 40.8499 8.01172 40.5588C8.71399 40.268 9.35198 39.8418 9.88932 39.3048C10.4266 38.7677 10.8527 38.1301 11.1432 37.4285C11.4338 36.7268 11.583 35.9752 11.5825 35.2161H11.59V31.3996L11.5745 31.4017V7.08778L11.5873 7.09081V5.78384C11.5886 5.08695 11.866 4.41887 12.3588 3.92542C12.8517 3.43198 13.52 3.15325 14.218 3.15004H24.2784V5.78384C24.2763 6.48042 23.998 7.14781 23.5044 7.64004C23.0107 8.13228 22.342 8.40933 21.6444 8.41057H12.7779V11.5633H21.643C23.1787 11.5634 24.6516 10.9544 25.7376 9.8702C26.8236 8.78603 27.4338 7.31555 27.4339 5.78217V0L14.2166 0.00067315ZM8.4257 16.8218H3.16225V14.1951C3.16341 13.4974 3.4411 12.8285 3.93469 12.3346C4.42825 11.8407 5.09757 11.5619 5.79635 11.5593H8.42706L8.4257 16.8218ZM8.4257 35.2189C8.42455 35.9154 8.14709 36.5833 7.65408 37.0759C7.16104 37.5688 6.49258 37.8466 5.79499 37.8483H3.1609V31.0121C3.16153 30.3151 3.43937 29.6469 3.9333 29.1543C4.42727 28.6617 5.09688 28.3852 5.79499 28.3854H8.4257V35.2189ZM12.7779 19.9745H19.4221V22.604C19.4195 23.3004 19.141 23.9675 18.6475 24.4597C18.154 24.9518 17.4855 25.229 16.788 25.2307H12.7779V28.3854H16.7893C17.5499 28.3859 18.3031 28.2366 19.0059 27.9461C19.7087 27.6557 20.3472 27.2298 20.885 26.6928C21.4229 26.1558 21.8494 25.5182 22.1403 24.8165C22.4312 24.1148 22.5807 23.3627 22.5803 22.6033H22.583V16.8211H12.7779V19.9745Z" fill="url(#paint0_linear)"/>
<defs>
<linearGradient id="paint0_linear" x1="13.717" y1="0" x2="13.717" y2="41" gradientUnits="userSpaceOnUse">
<stop stop-color="#7E50E0"/>
<stop offset="1" stop-color="#6D69FB"/>
</linearGradient>
</defs>
</svg>
